<?xml version="1.0" encoding="utf-8"?>
<!-- Generator: Adobe Illustrator 16.0.0, SVG Export Plug-In . SVG Version: 6.00 Build 0)  -->
<!DOCTYPE svg PUBLIC "-//W3C//DTD SVG 1.1//EN" "http://www.w3.org/Graphics/SVG/1.1/DTD/svg11.dtd">
<svg version="1.1" id="Layer_1" xmlns="http://www.w3.org/2000/svg" xmlns:xlink="http://www.w3.org/1999/xlink" x="0px" y="0px"
	 viewBox="0 138.5 240 95.501" enable-background="new 0 138.5 240 95.501" xml:space="preserve">
<g>
	<path fill="#24B4F2" d="M15.041,233.245h-4.877l9.427-84.821c0.286-2.585,0.881-4.438,1.783-5.54
		c0.907-1.111,2.313-1.658,4.224-1.658c1.666,0,2.988,0.487,3.981,1.469c0.999,0.97,1.74,2.522,2.253,4.649l19.711,78.823
		c0.182,0.648,0.389,1.152,0.624,1.534c0.235,0.384,0.478,0.575,0.727,0.575c0.254,0,0.487-0.168,0.713-0.511
		c0.211-0.339,0.413-0.85,0.59-1.534l19.771-78.887c0.507-2.081,1.26-3.622,2.273-4.618c1.008-1.003,2.362-1.5,4.063-1.5
		c1.874,0,3.252,0.55,4.14,1.658c0.891,1.102,1.452,2.928,1.709,5.477l9.425,84.881h-4.87l-9.427-85.136
		c-0.039-0.555-0.17-1.03-0.408-1.442c-0.235-0.396-0.497-0.598-0.782-0.598c-0.365,0-0.643,0.132-0.84,0.377
		c-0.197,0.257-0.411,0.88-0.624,1.848l-19.395,77.501c-0.756,2.966-1.62,5.085-2.599,6.333c-0.975,1.248-2.223,1.875-3.742,1.875
		c-1.55,0-2.813-0.629-3.787-1.875c-0.975-1.245-1.824-3.364-2.544-6.333l-19.39-77.501c-0.226-0.965-0.427-1.589-0.629-1.848
		c-0.197-0.248-0.478-0.377-0.84-0.377c-0.286,0-0.547,0.202-0.783,0.598c-0.237,0.413-0.374,0.885-0.405,1.442L15.041,233.245z"/>
	<path fill="#24B4F2" d="M112.853,154.29c0-1.058,0.374-1.949,1.135-2.668c0.754-0.725,1.702-1.083,2.818-1.083
		c1.157,0,2.138,0.357,2.945,1.083c0.801,0.722,1.205,1.61,1.205,2.668c0,1.073-0.403,1.98-1.205,2.746
		c-0.807,0.761-1.786,1.15-2.945,1.15c-1.078,0-2.001-0.387-2.784-1.15C113.244,156.27,112.853,155.362,112.853,154.29
		 M114.058,171.627h5.621v61.618h-5.621V171.627z"/>
	<path fill="#24B4F2" d="M137.215,233.245v-62.251c0-9.687,2.563-16.941,7.697-21.766c5.124-4.821,12.845-7.233,23.143-7.233h14.527
		v5.229h-16.059c-7.721,0-13.533,1.838-17.434,5.51c-3.899,3.679-5.851,9.151-5.851,16.407v15.806h39.343v5.101h-39.343v43.199
		h-6.024V233.245z"/>
	<path fill="#24B4F2" d="M198.977,154.29c0-1.058,0.379-1.949,1.145-2.668c0.754-0.725,1.692-1.083,2.809-1.083
		c1.156,0,2.143,0.357,2.945,1.083c0.801,0.722,1.204,1.61,1.204,2.668c0,1.073-0.403,1.98-1.204,2.746
		c-0.803,0.761-1.786,1.15-2.945,1.15c-1.068,0-2.006-0.387-2.774-1.15C199.365,156.27,198.977,155.362,198.977,154.29
		 M200.182,171.627h5.621v61.618h-5.621V171.627z"/>
	<g>
		<path fill="#24B4F2" d="M229.836,145.768c0,2.004-0.708,3.715-2.127,5.136c-1.42,1.421-3.131,2.129-5.138,2.129
			c-2.004,0-3.716-0.708-5.134-2.129c-1.421-1.421-2.131-3.132-2.131-5.136c0-2.004,0.71-3.718,2.131-5.136
			c1.418-1.421,3.13-2.131,5.134-2.131c2.007,0,3.718,0.71,5.138,2.131C229.128,142.05,229.836,143.763,229.836,145.768z
			 M228.861,145.768c0-1.738-0.614-3.226-1.843-4.469c-1.231-1.243-2.71-1.862-4.45-1.862c-1.732,0-3.215,0.622-4.447,1.862
			c-1.23,1.246-1.843,2.734-1.843,4.469c0,1.735,0.612,3.223,1.843,4.466c1.232,1.243,2.715,1.865,4.447,1.865
			c1.74,0,3.219-0.624,4.45-1.865C228.25,148.991,228.861,147.502,228.861,145.768z M227.251,149.463h-1.874l-2.779-2.983h-1.358
			v2.983h-1.385v-7.685h2.618c0.525,0,0.96,0.024,1.303,0.065c0.344,0.048,0.675,0.154,1.009,0.329
			c0.353,0.192,0.612,0.423,0.777,0.694c0.163,0.271,0.247,0.612,0.247,1.02c0,0.545-0.158,0.994-0.473,1.356
			c-0.319,0.36-0.751,0.648-1.309,0.859L227.251,149.463z M224.295,143.979c0-0.202-0.041-0.382-0.118-0.54
			c-0.079-0.156-0.211-0.283-0.394-0.384c-0.173-0.096-0.359-0.158-0.555-0.187c-0.196-0.026-0.441-0.041-0.738-0.041h-1.251v2.595
			h1.063c0.35,0,0.65-0.029,0.899-0.082c0.253-0.051,0.458-0.144,0.622-0.271c0.172-0.139,0.295-0.292,0.365-0.46
			C224.258,144.44,224.295,144.229,224.295,143.979z"/>
	</g>
</g>
</svg>
