<?xml version="1.0" encoding="utf-8"?>
<!-- Generator: Adobe Illustrator 18.0.0, SVG Export Plug-In . SVG Version: 6.00 Build 0)  -->
<!DOCTYPE svg PUBLIC "-//W3C//DTD SVG 1.1//EN" "http://www.w3.org/Graphics/SVG/1.1/DTD/svg11.dtd">
<svg version="1.1" id="Layer_1" xmlns="http://www.w3.org/2000/svg" xmlns:xlink="http://www.w3.org/1999/xlink" x="0px" y="0px"
	 viewBox="0 0 514.8 115" enable-background="new 0 0 514.8 115" xml:space="preserve">
<path fill="#CA3821" d="M409.2,106h102.7c2.1,0,3.5-2.1,2.8-4.1l-18.1-47.9c-0.3-0.7-0.3-1.4,0-2.1l18.1-47.9c0.7-2-0.7-4.1-2.8-4.1
	L409.2,0V106z"/>
<path fill="#A42B15" d="M409.2,115h50c1.7,0,3-1.3,3-3V9l-53-9V115z"/>
<path fill="#CA3821" d="M105.7,106H3c-2.1,0-3.5-2.1-2.8-4.1l18.1-47.9c0.3-0.7,0.3-1.4,0-2.1L0.2,4.1C-0.5,2.1,0.9,0,3,0h102.7V106
	z"/>
<path fill="#A42B15" d="M105.7,115h-50c-1.7,0-3-1.3-3-3V9l53-9V115z"/>
<path fill="#EB3F28" d="M459.7,115h-404c-1.7,0-3-1.3-3-3V9h410v103C462.7,113.7,461.3,115,459.7,115z"/>
</svg>
